<?xml version="1.0" ?><svg fill="#d1d5db" data-name="Layer 1" id="Layer_1" viewBox="0 0 64 64" xmlns="http://www.w3.org/2000/svg"><title/><path fill="#d1d5db" d="M31,28.019v7.2l8.234,4.755,8.235-4.755V25.709l-8.235-4.754L33,24.554v-7.2L24.766,12.6l-8.235,4.754v9.509l8.235,4.755Zm2,0,5.232,3.02v6.048L33,34.063Zm7.232,9.071v-6.04l5.237-3.029v6.045Zm4.237-10.8-5.227,3.023L34,26.285l5.232-3.021ZM31,25.709h0l-5.237,3.023V22.692L31,19.664v6.045Zm-1-7.777-5.227,3.022-5.24-3.024,5.233-3.02ZM18.531,19.661l5.232,3.02v6.048l-5.232-3.02Z"/><path d="M33.36,50.859a1.92,1.92,0,0,0-1.638-.7H30.71v5.664H31.7a2.346,2.346,0,0,0,1.09-.223,1.719,1.719,0,0,0,.674-.618,2.585,2.585,0,0,0,.344-.908,5.967,5.967,0,0,0,.1-1.1,4.926,4.926,0,0,0-.138-1.24A2.5,2.5,0,0,0,33.36,50.859Z"/><path d="M54,43.67V17.376l-.293-.293L39.417,2.793,39.124,2.5H14a4,4,0,0,0-4,4V40.242a1.991,1.991,0,0,0-1,1.722V56.5a5.006,5.006,0,0,0,5,5H50a5.006,5.006,0,0,0,5-5V45.393A1.991,1.991,0,0,0,54,43.67ZM26.4,56.829a3.467,3.467,0,0,1-2.3.744,3.68,3.68,0,0,1-2.016-.564,3.807,3.807,0,0,1-.726-.588,2.746,2.746,0,0,1-.486-.72l1.476-.828a2.358,2.358,0,0,0,.264.42,2.453,2.453,0,0,0,.384.373,1.738,1.738,0,0,0,1.14.347,1.467,1.467,0,0,0,.948-.318,1.082,1.082,0,0,0,.4-.894,1.009,1.009,0,0,0-.24-.714,1.547,1.547,0,0,0-.594-.39,2.747,2.747,0,0,0-.762-.162c-.272-.019-.516-.03-.732-.03h-.288v-1.56h.228a3.525,3.525,0,0,0,1.632-.276.886.886,0,0,0,.372-1.182.917.917,0,0,0-.246-.288,1.114,1.114,0,0,0-.348-.174,1.379,1.379,0,0,0-.4-.06,1.612,1.612,0,0,0-.936.264,3.988,3.988,0,0,0-.732.66l-1.224-1.116a4.448,4.448,0,0,1,1.254-1,3.267,3.267,0,0,1,1.554-.372,3.411,3.411,0,0,1,2.16.637,2.13,2.13,0,0,1-.264,3.587,2.132,2.132,0,0,1,1.05.888,2.624,2.624,0,0,1,.342,1.344A2.4,2.4,0,0,1,26.4,56.829Zm9.157-1.938a3.523,3.523,0,0,1-.789,1.4,3.849,3.849,0,0,1-3.026,1.164H28.8V48.525H31.72a4.8,4.8,0,0,1,1.836.318,3.29,3.29,0,0,1,1.274.907,3.746,3.746,0,0,1,.741,1.409A6.609,6.609,0,0,1,35.81,53,6.49,6.49,0,0,1,35.559,54.891ZM42,56.877a3.586,3.586,0,0,1-2.352.7,3.844,3.844,0,0,1-1.9-.516,3,3,0,0,1-.852-.678,3.961,3.961,0,0,1-.636-1.062l1.6-.7a4.362,4.362,0,0,0,.312.57,1.948,1.948,0,0,0,.384.438,1.623,1.623,0,0,0,.5.282,1.88,1.88,0,0,0,.642.1,2.429,2.429,0,0,0,.492-.048,1.271,1.271,0,0,0,.426-.162.811.811,0,0,0,.294-.312,1.031,1.031,0,0,0,.108-.5.873.873,0,0,0-.456-.743,5.85,5.85,0,0,0-1.212-.6,7.5,7.5,0,0,1-2.076-1.092,2.1,2.1,0,0,1-.72-1.692,2.193,2.193,0,0,1,.84-1.764,3.181,3.181,0,0,1,2.1-.7,3.558,3.558,0,0,1,1.9.516,2.857,2.857,0,0,1,.744.648,4.239,4.239,0,0,1,.588,1.008l-1.764.54a2.457,2.457,0,0,0-.546-.834,1.286,1.286,0,0,0-.93-.318,1.876,1.876,0,0,0-.39.042,1.318,1.318,0,0,0-.36.132.7.7,0,0,0-.366.642.609.609,0,0,0,.114.348,1.128,1.128,0,0,0,.39.324,8.1,8.1,0,0,0,1.3.576A6.23,6.23,0,0,1,41.99,53a2.165,2.165,0,0,1,.852,1.848A2.526,2.526,0,0,1,42,56.877ZM52,43.393H30.086l-2.4-2.746a2,2,0,0,0-1.505-.683H12V6.5a2,2,0,0,1,2-2H37.71V14.79a4,4,0,0,0,4,4H52Z"/></svg>