<?xml version="1.0" ?><svg data-name="Layer 1" id="Layer_1" viewBox="0 0 64 64" xmlns="http://www.w3.org/2000/svg"><title/><path d="M31,28.019v7.2l8.234,4.755,8.235-4.755V25.709l-8.235-4.754L33,24.554v-7.2L24.766,12.6l-8.235,4.754v9.509l8.235,4.755Zm2,0,5.232,3.02v6.048L33,34.063Zm7.232,9.071v-6.04l5.237-3.029v6.045Zm4.237-10.8-5.227,3.023L34,26.285l5.232-3.021ZM31,25.709h0l-5.237,3.023V22.692L31,19.664v6.045Zm-1-7.777-5.227,3.022-5.24-3.024,5.233-3.02ZM18.531,19.661l5.232,3.02v6.048l-5.232-3.02Z"/><path d="M54,43.67V17.376l-.293-.293L39.417,2.793,39.124,2.5H14a4,4,0,0,0-4,4V40.242a1.991,1.991,0,0,0-1,1.722V56.5a5.006,5.006,0,0,0,5,5H50a5.006,5.006,0,0,0,5-5V45.393A1.991,1.991,0,0,0,54,43.67ZM25.9,56.829a3.467,3.467,0,0,1-2.3.744,3.68,3.68,0,0,1-2.016-.564,3.807,3.807,0,0,1-.726-.588,2.746,2.746,0,0,1-.486-.72l1.476-.828a2.358,2.358,0,0,0,.264.42,2.453,2.453,0,0,0,.384.373,1.738,1.738,0,0,0,1.14.347,1.467,1.467,0,0,0,.948-.318,1.082,1.082,0,0,0,.4-.894,1.009,1.009,0,0,0-.24-.714,1.547,1.547,0,0,0-.594-.39,2.747,2.747,0,0,0-.762-.162c-.272-.019-.516-.03-.732-.03h-.288v-1.56h.228a3.525,3.525,0,0,0,1.632-.276.886.886,0,0,0,.372-1.182.917.917,0,0,0-.246-.288A1.114,1.114,0,0,0,24,50.025a1.379,1.379,0,0,0-.4-.06,1.612,1.612,0,0,0-.936.264,3.988,3.988,0,0,0-.732.66L20.7,49.773a4.448,4.448,0,0,1,1.254-1,3.267,3.267,0,0,1,1.554-.372,3.411,3.411,0,0,1,2.16.637,2.13,2.13,0,0,1-.264,3.587,2.132,2.132,0,0,1,1.05.888,2.624,2.624,0,0,1,.342,1.344A2.4,2.4,0,0,1,25.9,56.829Zm10.752.624h-1.7V51.369l-1.74,6.084H31.754l-1.716-6.072v6.072h-1.7V48.525H30.89l1.584,5.736,1.6-5.736h2.58Zm7.1-7.3H39.878v1.824H42.77l.012,1.632-2.9.012v3.828H37.97V48.525h5.784ZM52,43.393H30.086l-2.4-2.746a2,2,0,0,0-1.505-.683H12V6.5a2,2,0,0,1,2-2H37.71V14.79a4,4,0,0,0,4,4H52Z"/></svg>