<?xml version="1.0" ?><svg fill="#d1d5db" data-name="Layer 1" id="Layer_1" viewBox="0 0 64 64" xmlns="http://www.w3.org/2000/svg"><title/><path d="M31,28.019v7.2l8.234,4.755,8.235-4.755V25.709l-8.235-4.754L33,24.554v-7.2L24.766,12.6l-8.235,4.754v9.509l8.235,4.755Zm2,0,5.232,3.02v6.048L33,34.063Zm7.232,9.071v-6.04l5.237-3.029v6.045Zm4.237-10.8-5.227,3.023L34,26.285l5.232-3.021ZM31,25.709h0l-5.237,3.023V22.692L31,19.664v6.045Zm-1-7.777-5.227,3.022-5.24-3.024,5.233-3.02ZM18.531,19.661l5.232,3.02v6.048l-5.232-3.02Z"/><path d="M47.156,51.4a1.758,1.758,0,0,0-1.5-.644h-.928v5.192h.906a2.141,2.141,0,0,0,1-.2,1.579,1.579,0,0,0,.618-.566,2.362,2.362,0,0,0,.315-.832,5.438,5.438,0,0,0,.088-1,4.489,4.489,0,0,0-.127-1.137A2.283,2.283,0,0,0,47.156,51.4Z"/><path d="M18.3,53.9H16.908v2.046h1.414a1.317,1.317,0,0,0,.851-.234.992.992,0,0,0,.287-.811.955.955,0,0,0-.276-.761A1.387,1.387,0,0,0,18.3,53.9Z"/><path d="M54,43.67V17.376l-.293-.293L39.417,2.793,39.124,2.5H14a4,4,0,0,0-4,4V40.242a1.991,1.991,0,0,0-1,1.722V56.5a5.006,5.006,0,0,0,5,5H50a5.006,5.006,0,0,0,5-5V45.393A1.991,1.991,0,0,0,54,43.67ZM20.408,56.881a3.835,3.835,0,0,1-2.273.561H15.159V49.258h3.053a5.574,5.574,0,0,1,1.048.1,2.627,2.627,0,0,1,.906.347,1.832,1.832,0,0,1,.631.665,2.1,2.1,0,0,1,.237,1.045,1.967,1.967,0,0,1-.264,1.012,1.79,1.79,0,0,1-.769.7,1.906,1.906,0,0,1,.945.77,2.546,2.546,0,0,1,.263,1.21A2.011,2.011,0,0,1,20.408,56.881Zm7.291.561H22.5V49.258h1.749v6.688H27.7Zm6.6,0h-5.62V49.258h5.488v1.5h-3.74v1.672h2.728v1.5l-2.728.012v2.012H34.3Zm7.469,0H40.129l-3.091-5.368v5.368H35.366V49.258h1.771L40.1,54.384V49.258h1.672Zm7.4-2.348a3.22,3.22,0,0,1-.724,1.281,3.522,3.522,0,0,1-2.773,1.067h-2.7V49.258h2.675a4.392,4.392,0,0,1,1.683.292,3.02,3.02,0,0,1,1.167.83,3.44,3.44,0,0,1,.68,1.293,6.041,6.041,0,0,1,.219,1.688A5.953,5.953,0,0,1,49.172,55.094ZM52,43.393H30.086l-2.4-2.746a2,2,0,0,0-1.505-.683H12V6.5a2,2,0,0,1,2-2H37.71V14.79a4,4,0,0,0,4,4H52Z"/><path d="M18.668,52.356a.928.928,0,0,0,.309-.145.771.771,0,0,0,.214-.24.7.7,0,0,0,.082-.349.8.8,0,0,0-.252-.643,1.12,1.12,0,0,0-.76-.225H16.908V52.4h1.4A1.37,1.37,0,0,0,18.668,52.356Z"/></svg>