<?xml version="1.0" ?><svg viewBox="0 0 64 64" xmlns="http://www.w3.org/2000/svg"><title/><g data-name="Layer 36" id="Layer_36"><path d="M14.54,46.06a.91.91,0,0,1-.63-.23.83.83,0,0,1-.26-.66.85.85,0,0,1,.25-.62.83.83,0,0,1,.62-.26.87.87,0,0,1,.63.25.9.9,0,0,1,0,1.27A.88.88,0,0,1,14.54,46.06Z"/><path d="M18.43,37.33h2.27a6.11,6.11,0,0,1,1.52.16,2.79,2.79,0,0,1,1.15.62A4.35,4.35,0,0,1,24.7,41.6,6.85,6.85,0,0,1,24.57,43a4.17,4.17,0,0,1-.42,1.15,3.58,3.58,0,0,1-.72.92,3,3,0,0,1-.76.5,3.42,3.42,0,0,1-.88.26,6.71,6.71,0,0,1-1.06.08H18.46a1.42,1.42,0,0,1-.71-.14.67.67,0,0,1-.31-.4,2.57,2.57,0,0,1-.07-.68V38.4a.91.91,0,0,1,1.07-1.07Zm.67,1.38v5.83h1.32l.68,0a2.12,2.12,0,0,0,.51-.12,1.39,1.39,0,0,0,.46-.26,3.18,3.18,0,0,0,.87-2.54,3.75,3.75,0,0,0-.38-1.9,1.71,1.71,0,0,0-.95-.81,4.67,4.67,0,0,0-1.36-.17Z"/><path d="M32.61,44.56l-1.39-5.15-1.41,5.15q-.16.59-.26.84a1.11,1.11,0,0,1-.34.46,1,1,0,0,1-.64.2,1,1,0,0,1-.53-.12.92.92,0,0,1-.34-.34,2.14,2.14,0,0,1-.21-.52l-.15-.56-1.43-5.78A3.38,3.38,0,0,1,25.8,38a.75.75,0,0,1,.23-.56.8.8,0,0,1,.58-.23.66.66,0,0,1,.64.3,3.44,3.44,0,0,1,.29.88l1.13,5,1.26-4.69a7.56,7.56,0,0,1,.25-.82,1.18,1.18,0,0,1,.36-.49,1.05,1.05,0,0,1,.69-.21,1,1,0,0,1,.68.21,1.17,1.17,0,0,1,.34.47q.09.25.25.83l1.27,4.69,1.13-5a6,6,0,0,1,.16-.62,1,1,0,0,1,.25-.4.71.71,0,0,1,.52-.18.81.81,0,0,1,.58.23.75.75,0,0,1,.24.57,3.67,3.67,0,0,1-.13.77l-1.43,5.78q-.15.59-.24.86a1.14,1.14,0,0,1-.33.48,1,1,0,0,1-.65.21,1,1,0,0,1-.64-.2,1.08,1.08,0,0,1-.33-.45Q32.78,45.17,32.61,44.56Z"/><path d="M42.92,38.67H39.49v2.2h2.87A.86.86,0,0,1,43,41a.61.61,0,0,1,.2.48.6.6,0,0,1-.2.47.87.87,0,0,1-.59.18H39.49V45a1.14,1.14,0,0,1-.24.8.88.88,0,0,1-1.25,0,1.14,1.14,0,0,1-.24-.8V38.4a1.45,1.45,0,0,1,.11-.61.69.69,0,0,1,.35-.35,1.47,1.47,0,0,1,.61-.11h4.1a.89.89,0,0,1,.62.18.62.62,0,0,1,.2.48.63.63,0,0,1-.2.49A.89.89,0,0,1,42.92,38.67Z"/><path d="M44.72,44.25l1.92-2.81L45,38.95a5,5,0,0,1-.34-.62,1.25,1.25,0,0,1-.11-.5.58.58,0,0,1,.22-.44.78.78,0,0,1,.54-.2.74.74,0,0,1,.57.21,5.4,5.4,0,0,1,.56.79l1.29,2.09,1.38-2.09.29-.45a2.37,2.37,0,0,1,.23-.31.75.75,0,0,1,.25-.18.78.78,0,0,1,.32-.06.75.75,0,0,1,.54.2.62.62,0,0,1,.21.47,2.16,2.16,0,0,1-.45,1.07L48.8,41.44l1.82,2.81a4.69,4.69,0,0,1,.36.61,1.11,1.11,0,0,1,.11.46.73.73,0,0,1-.1.38.72.72,0,0,1-.28.27.84.84,0,0,1-.41.1.79.79,0,0,1-.42-.1.89.89,0,0,1-.28-.25l-.39-.59-1.51-2.38L46.1,45.19l-.27.41a1.55,1.55,0,0,1-.19.23.82.82,0,0,1-.26.18.91.91,0,0,1-.36.06.74.74,0,0,1-.52-.19.73.73,0,0,1-.21-.56A2,2,0,0,1,44.72,44.25Z"/><path d="M57,35a1,1,0,0,0-1-1H53V16s0,0,0-.06a1,1,0,0,0,0-.21s0-.05,0-.07l0,0a1,1,0,0,0-.18-.29l-11-12a1,1,0,0,0-.29-.21l0,0-.06,0A1,1,0,0,0,41.11,3H14.42A3.42,3.42,0,0,0,11,6.42V34H8a1,1,0,0,0-1,1V49s0,0,0,.07a1.08,1.08,0,0,0,.34.68l0,.05L11,52.5v5.08A3.42,3.42,0,0,0,14.42,61H49.58A3.42,3.42,0,0,0,53,57.58V52.5l3.6-2.7,0-.05a1.08,1.08,0,0,0,.34-.68s0,0,0-.07ZM21,34V5H40V16a1,1,0,0,0,1,1H51V34ZM42,6.57,49.73,15H42ZM13,6.42A1.42,1.42,0,0,1,14.42,5H19V34H13ZM9,36H55V48H9Zm4,21.58V50h6v9H14.42A1.42,1.42,0,0,1,13,57.58ZM49.58,59H21V50H51v7.58A1.42,1.42,0,0,1,49.58,59Z"/></g></svg>