<?xml version="1.0" ?><svg fill="#d1d5db" data-name="Layer 1" id="Layer_1" viewBox="0 0 64 64" xmlns="http://www.w3.org/2000/svg"><title/><path d="M31,28.019v7.2l8.234,4.755,8.235-4.755V25.709l-8.235-4.754L33,24.554v-7.2L24.766,12.6l-8.235,4.754v9.509l8.235,4.755Zm2,0,5.232,3.02v6.048L33,34.063Zm7.232,9.071v-6.04l5.237-3.029v6.045Zm4.237-10.8-5.227,3.023L34,26.285l5.232-3.021ZM31,25.709h0l-5.237,3.023V22.692L31,19.664v6.045Zm-1-7.777-5.227,3.022-5.24-3.024,5.233-3.02ZM18.531,19.661l5.232,3.02v6.048l-5.232-3.02Z"/><path d="M39.566,53.589H38.048v2.232H39.59a1.447,1.447,0,0,0,.929-.255,1.083,1.083,0,0,0,.313-.884,1.046,1.046,0,0,0-.3-.831A1.515,1.515,0,0,0,39.566,53.589Z"/><path d="M39.968,51.905a1.022,1.022,0,0,0,.336-.158.833.833,0,0,0,.234-.263.755.755,0,0,0,.09-.38.867.867,0,0,0-.276-.7,1.212,1.212,0,0,0-.828-.246H38.048v1.8h1.524A1.5,1.5,0,0,0,39.968,51.905Z"/><path d="M54,43.67V17.376l-.293-.293L39.417,2.793,39.124,2.5H14a4,4,0,0,0-4,4V40.242a1.991,1.991,0,0,0-1,1.722V56.5a5.006,5.006,0,0,0,5,5H50a5.006,5.006,0,0,0,5-5V45.393A1.991,1.991,0,0,0,54,43.67ZM28.064,57.454H26.588v-.693a2.735,2.735,0,0,1-.96.633,3.311,3.311,0,0,1-1.14.179,3.48,3.48,0,0,1-1.656-.365,3.192,3.192,0,0,1-1.116-.979,4.144,4.144,0,0,1-.63-1.41,6.877,6.877,0,0,1-.2-1.662,8.069,8.069,0,0,1,.2-1.806,4.386,4.386,0,0,1,.644-1.512A3.244,3.244,0,0,1,22.912,48.8a3.827,3.827,0,0,1,1.8-.39,3.626,3.626,0,0,1,1.884.521,2.653,2.653,0,0,1,.768.721,4.369,4.369,0,0,1,.564,1.17l-1.776.468a2.757,2.757,0,0,0-.63-.93,1.531,1.531,0,0,0-1.05-.318,1.211,1.211,0,0,0-.882.321,2.165,2.165,0,0,0-.51.792,3.918,3.918,0,0,0-.234,1,9.231,9.231,0,0,0-.054.926,7.049,7.049,0,0,0,.066.913,3.592,3.592,0,0,0,.254.938,1.928,1.928,0,0,0,.532.726,1.326,1.326,0,0,0,.888.29,1.586,1.586,0,0,0,1.2-.475,1.613,1.613,0,0,0,.456-1H24.548V52.833h3.516Zm7.08,0H29.468V48.525h1.908v7.3h3.768Zm6.721-.612a4.173,4.173,0,0,1-2.479.612H36.14V48.525h3.33a6.078,6.078,0,0,1,1.144.108,2.88,2.88,0,0,1,.988.378,2.01,2.01,0,0,1,.689.726,2.3,2.3,0,0,1,.257,1.14,2.154,2.154,0,0,1-.287,1.1,1.96,1.96,0,0,1-.839.769,2.073,2.073,0,0,1,1.031.839,2.787,2.787,0,0,1,.287,1.32A2.193,2.193,0,0,1,41.865,56.841ZM52,43.393H30.086l-2.4-2.746a2,2,0,0,0-1.505-.683H12V6.5a2,2,0,0,1,2-2H37.71V14.79a4,4,0,0,0,4,4H52Z"/></svg>