<?xml version="1.0" ?><!DOCTYPE svg  PUBLIC '-//W3C//DTD SVG 1.1//EN'  'http://www.w3.org/Graphics/SVG/1.1/DTD/svg11.dtd'><svg height="8.33333in" style="shape-rendering:geometricPrecision; text-rendering:geometricPrecision; image-rendering:optimizeQuality; fill-rule:evenodd; clip-rule:evenodd" viewBox="0 0 8.33333 8.33333" width="8.33333in" xml:space="preserve" xmlns="http://www.w3.org/2000/svg" xmlns:xlink="http://www.w3.org/1999/xlink"><defs><style type="text/css">
   <![CDATA[
    .fil1 {fill:none}
    .fil0 {fill:#d1d5db}
   ]]>
  </style></defs><g id="Layer_x0020_1"><path class="fil0" d="M5.15481 1.68666l-2.71465 0 0 2.21042c0,0.066252 -0.0537402,0.119992 -0.119992,0.119992 -0.066252,0 -0.119992,-0.0537402 -0.119992,-0.119992l0 -2.33041c0,-0.066252 0.0537402,-0.119992 0.119992,-0.119992l2.91464 0c0.0320866,0 0.0625157,0.0128268 0.0851772,0.0354921l0.77802 0.77802c0.0225512,0.0225472 0.0351496,0.0529488 0.0351496,0.0848386l3.93701e-006 1.55205c0,0.066252 -0.0537402,0.119992 -0.119992,0.119992 -0.066252,0 -0.119992,-0.0537402 -0.119992,-0.119992l0 -1.47206 -0.269189 0c-0.129106,0 -0.246421,-0.0527638 -0.331417,-0.137756 -0.0849921,-0.0849961 -0.137756,-0.202311 -0.137756,-0.331417l0 -0.269189zm-2.71465 4.96002l3.45301 0 0 -0.62522c0,-0.066252 0.0537402,-0.119992 0.119992,-0.119992 0.066252,0 0.119992,0.0537402 0.119992,0.119992l0 0.745213c0,0.066252 -0.0537402,0.119992 -0.119992,0.119992l-3.693 0c-0.066252,0 -0.119992,-0.0537402 -0.119992,-0.119992l0 -0.745213c0,-0.066252 0.0537402,-0.119992 0.119992,-0.119992 0.066252,0 0.119992,0.0537402 0.119992,0.119992l0 0.62522z"/><polygon class="fil0" points="3.0052,2.8249 5.32812,2.8249 5.32812,3.02489 3.0052,3.02489 "/><polygon class="fil0" points="3.0052,3.2995 5.32812,3.2995 5.32812,3.49949 3.0052,3.49949 "/><polygon class="fil0" points="3.0052,2.3503 4.64759,2.3503 4.64759,2.5503 3.0052,2.5503 "/><path class="fil0" d="M2.96546 5.4669l0 -1.01528 0.204949 0 0 1.01528 -0.204949 0zm0.297138 0l0.395476 -1.01528 0.216768 0 0.406583 1.01528 -0.22315 0 -0.0886417 -0.230713 -0.405878 0 -0.0836811 0.230713 -0.217476 0zm1.12473 0l0 -1.01528 0.306831 0 0.184146 0.692614 0.18202 -0.692614 0.307539 0 0 1.01528 -0.190291 0 0 -0.799224 -0.201642 0.799224 -0.197382 0 -0.200929 -0.799224 0 0.799224 -0.190291 0zm-1.94717 0.634551l3.45301 0 0.239984 0 0.401661 0c0.0441811,0 0.08,-0.0358189 0.08,-0.08l0 -2.12438c0,-0.0441811 -0.0358189,-0.08 -0.08,-0.08l-0.401661 0 -0.239984 0 -3.45301 0 -0.239984 0 -0.401661 0c-0.0441811,0 -0.08,0.0358189 -0.08,0.08l0 2.12438c0,0.0441811 0.0358189,0.08 0.08,0.08l0.401661 0 0.239984 0z"/><polygon class="fil0" points="3.76398,4.68848 3.62687,5.06528 3.90392,5.06528 "/></g><rect class="fil1" height="8.33333" width="8.33333"/></svg>