<?xml version="1.0" ?><!DOCTYPE svg  PUBLIC '-//W3C//DTD SVG 1.1//EN'  'http://www.w3.org/Graphics/SVG/1.1/DTD/svg11.dtd'><svg height="8.33333in" style="shape-rendering:geometricPrecision; text-rendering:geometricPrecision; image-rendering:optimizeQuality; fill-rule:evenodd; clip-rule:evenodd" viewBox="0 0 8.33333 8.33333" width="8.33333in" xml:space="preserve" xmlns="http://www.w3.org/2000/svg" xmlns:xlink="http://www.w3.org/1999/xlink"><defs><style type="text/css">
   <![CDATA[
    .fil1 {fill:none}
    .fil0 {fill:black}
   ]]>
  </style></defs><g id="Layer_x0020_1"><path class="fil0" d="M5.15481 1.68666l-2.71465 0 0 2.21042c0,0.066252 -0.0537402,0.119992 -0.119992,0.119992 -0.066252,0 -0.119992,-0.0537402 -0.119992,-0.119992l0 -2.33041c0,-0.066252 0.0537402,-0.119992 0.119992,-0.119992l2.91464 0c0.0320866,0 0.0625157,0.0128268 0.0851772,0.0354921l0.77802 0.77802c0.0225512,0.0225472 0.0351496,0.0529488 0.0351496,0.0848386l3.93701e-006 1.55205c0,0.066252 -0.0537402,0.119992 -0.119992,0.119992 -0.066252,0 -0.119992,-0.0537402 -0.119992,-0.119992l0 -1.47206 -0.269189 0c-0.129106,0 -0.246421,-0.0527638 -0.331417,-0.137756 -0.0849921,-0.0849961 -0.137756,-0.202311 -0.137756,-0.331417l0 -0.269189zm-2.71465 4.96002l3.45301 0 0 -0.62522c0,-0.066252 0.0537402,-0.119992 0.119992,-0.119992 0.066252,0 0.119992,0.0537402 0.119992,0.119992l0 0.745213c0,0.066252 -0.0537402,0.119992 -0.119992,0.119992l-3.693 0c-0.066252,0 -0.119992,-0.0537402 -0.119992,-0.119992l0 -0.745213c0,-0.066252 0.0537402,-0.119992 0.119992,-0.119992 0.066252,0 0.119992,0.0537402 0.119992,0.119992l0 0.62522z"/><polygon class="fil0" points="3.0052,2.8249 5.32812,2.8249 5.32812,3.02489 3.0052,3.02489 "/><polygon class="fil0" points="3.0052,3.2995 5.32812,3.2995 5.32812,3.49949 3.0052,3.49949 "/><polygon class="fil0" points="3.0052,2.3503 4.64759,2.3503 4.64759,2.5503 3.0052,2.5503 "/><path class="fil0" d="M2.76005 4.45126l0 1.01528 -0.204949 0 0 -1.01528 0.204949 0zm0.42124 0.0333307c0.0650079,-0.0338031 0.146087,-0.0505866 0.243004,-0.0505866 0.125996,0 0.224571,0.0264764 0.295248,0.079189 0.0709173,0.0529528 0.116539,0.125996 0.13687,0.21937l-0.203531 0.0380551c-0.0144173,-0.049878 -0.0413661,-0.0893543 -0.0808425,-0.118193 -0.0394764,-0.0288386 -0.0886457,-0.0432598 -0.147744,-0.0432598 -0.0895906,0 -0.16074,0.0283701 -0.213693,0.0851024 -0.0529488,0.0569685 -0.079189,0.141122 -0.079189,0.252933 0,0.120323 0.0267126,0.210858 0.0803701,0.271138 0.0534252,0.0602756 0.123634,0.0902992 0.210386,0.0902992 0.0430236,0 0.0860433,-0.00851181 0.129303,-0.0252953 0.0430236,-0.0167835 0.0801378,-0.0373465 0.111102,-0.0612244l0 -0.128831 -0.234732 0 0 -0.171142 0.441807 0 0 0.404457c-0.0430236,0.0416024 -0.105193,0.0782441 -0.186744,0.109921 -0.0815551,0.031437 -0.164055,0.0472756 -0.2475,0.0472756 -0.106138,0 -0.198799,-0.0222205 -0.277752,-0.0666614 -0.0789528,-0.0446772 -0.138287,-0.108264 -0.178,-0.191236 -0.0397126,-0.0829724 -0.0595709,-0.173035 -0.0595709,-0.270429 0,-0.105661 0.0222205,-0.199744 0.0664252,-0.282008 0.0444409,-0.0820276 0.109213,-0.145142 0.194783,-0.188874zm0.877469 0.981953l0 -1.01528 0.752657 0 0 0.171854 -0.547709 0 0 0.225039 0.50965 0 0 0.170909 -0.50965 0 0 0.276335 0.567094 0 0 0.171146 -0.772043 0zm0.894016 -0.330232l0.199508 -0.019622c0.0118189,0.0671339 0.0361654,0.116303 0.0730433,0.147744 0.0366417,0.0312008 0.0860433,0.0470394 0.148453,0.0470394 0.0659488,0 0.115827,-0.0139449 0.149157,-0.0420748 0.0335669,-0.0278937 0.0503504,-0.0605157 0.0503504,-0.0978661 0,-0.0241102 -0.00709055,-0.0444409 -0.0212756,-0.0612244 -0.0139449,-0.0170197 -0.0385276,-0.0316732 -0.073752,-0.0439685 -0.023874,-0.00850787 -0.0787165,-0.0231654 -0.164051,-0.0444409 -0.109921,-0.0271811 -0.18698,-0.060752 -0.231181,-0.100465 -0.0624094,-0.0557874 -0.0936102,-0.123866 -0.0936102,-0.204236 0,-0.0517677 0.0146535,-0.0999921 0.0439685,-0.145142 0.029311,-0.0449134 0.071622,-0.079189 0.126697,-0.102831 0.055315,-0.0234016 0.12174,-0.0352205 0.199748,-0.0352205 0.12765,0 0.223386,0.0278937 0.287921,0.0836811 0.0642953,0.0560236 0.0980984,0.130484 0.101409,0.223858l-0.204949 0.00898425c-0.00874409,-0.0522441 -0.0276575,-0.0898268 -0.0564961,-0.11252 -0.0288386,-0.0229291 -0.0720984,-0.0342795 -0.129776,-0.0342795 -0.0595709,0 -0.106374,0.0120591 -0.139941,0.0366417 -0.021748,0.0156024 -0.032622,0.0366417 -0.032622,0.062878 0,0.0241142 0.0101654,0.0446772 0.0304921,0.0616969 0.0257677,0.021748 0.0886457,0.0444409 0.188402,0.0678465 0.0997559,0.0236378 0.173508,0.0479843 0.22126,0.0730433 0.047748,0.0252913 0.0850984,0.0595669 0.112283,0.103299 0.0269488,0.0437323 0.0404213,0.0976299 0.0404213,0.161689 0,0.0581496 -0.0160748,0.112756 -0.0484606,0.163343 -0.0323819,0.0508228 -0.0780079,0.0886457 -0.137102,0.113232 -0.0590984,0.0248189 -0.13285,0.0371102 -0.221024,0.0371102 -0.128358,0 -0.226929,-0.0295472 -0.295717,-0.0888819 -0.0687874,-0.0593307 -0.109917,-0.14585 -0.123157,-0.259315zm-2.51261 0.965138l3.45301 0 0.239984 0 0.401661 0c0.0441811,0 0.08,-0.0358189 0.08,-0.08l0 -2.12438c0,-0.0441811 -0.0358189,-0.08 -0.08,-0.08l-0.401661 0 -0.239984 0 -3.45301 0 -0.239984 0 -0.401661 0c-0.0441811,0 -0.08,0.0358189 -0.08,0.08l0 2.12438c0,0.0441811 0.0358189,0.08 0.08,0.08l0.401661 0 0.239984 0z"/></g><rect class="fil1" height="8.33333" width="8.33333"/></svg>