<?xml version="1.0" ?><!DOCTYPE svg  PUBLIC '-//W3C//DTD SVG 1.1//EN'  'http://www.w3.org/Graphics/SVG/1.1/DTD/svg11.dtd'><svg enable-background="new 0 0 64 64" height="64px" version="1.1" viewBox="0 0 64 64" width="64px" xml:space="preserve" xmlns="http://www.w3.org/2000/svg" xmlns:xlink="http://www.w3.org/1999/xlink"><g id="Layer_2"><g><g><path d="M54,59H22c-2.757,0-5-2.243-5-5v-6h2v6c0,1.654,1.346,3,3,3h32c1.654,0,3-1.346,3-3V15.173L48.827,7H22V5     h27.655L59,14.345V54C59,56.757,56.757,59,54,59z" fill="#010202"/></g><g><path d="M19,31h-2V10c0-2.757,2.243-5,5-5v2c-1.654,0-3,1.346-3,3V31z" fill="#010202"/></g><g id="LWPOLYLINE_240_"><g><rect fill="#010202" height="2" width="28" x="24" y="51"/></g></g><g id="LWPOLYLINE_239_"><g><rect fill="#010202" height="2" width="28" x="24" y="16"/></g></g><g id="LWPOLYLINE_238_"><g><rect fill="#010202" height="2" width="28" x="24" y="26"/></g></g><g id="LWPOLYLINE_237_"><g><rect fill="#010202" height="2" width="28" x="24" y="21"/></g></g><g id="LWPOLYLINE_236_"><g><rect fill="#010202" height="2" width="11" x="41" y="31"/></g></g><g id="LWPOLYLINE_235_"><g><rect fill="#010202" height="2" width="11" x="41" y="36"/></g></g><g id="LWPOLYLINE_234_"><g><rect fill="#010202" height="2" width="11" x="41" y="41"/></g></g><g id="LWPOLYLINE_233_"><g><rect fill="#010202" height="2" width="11" x="41" y="46"/></g></g><g id="LWPOLYLINE_232_"><g><path d="M34,49H10c-2.757,0-5-2.243-5-5v-9c0-2.757,2.243-5,5-5h24c2.757,0,5,2.243,5,5v9      C39,46.757,36.757,49,34,49z M10,32c-1.654,0-3,1.346-3,3v9c0,1.654,1.346,3,3,3h24c1.654,0,3-1.346,3-3v-9c0-1.654-1.346-3-3-3      H10z" fill="#010202"/></g></g><g id="LINE_24_"><g><rect fill="#010202" height="2" transform="matrix(0.7071 0.7071 -0.7071 0.7071 23.0459 -34.8762)" width="12.387" x="47.427" y="9.38"/></g></g><g id="LWPOLYLINE_231_"><g><path d="M58,15.759h-4.759c-2.757,0-5-2.243-5-5V6h2v4.759c0,1.654,1.346,3,3,3H58V15.759z" fill="#010202"/></g></g></g></g><g id="Layer_1"><g><g><path d="M30.55,39.91c0.22,0.39,0.33,0.82,0.311,1.27c0,0.45-0.13,0.89-0.37,1.27c-0.26,0.4-0.63,0.71-1.07,0.88     c-0.55,0.21-1.13,0.31-1.72,0.29c-0.82,0.06-1.641-0.19-2.3-0.69c-0.561-0.53-0.91-1.25-0.96-2.02l1.54-0.15     c0.05,0.43,0.25,0.83,0.56,1.12c0.33,0.26,0.74,0.38,1.15,0.36c0.409,0.03,0.819-0.08,1.159-0.32     c0.24-0.18,0.381-0.45,0.381-0.75c0.01-0.17-0.051-0.34-0.16-0.47c-0.15-0.16-0.351-0.27-0.57-0.34l-1.26-0.34     c-0.65-0.12-1.26-0.39-1.78-0.79c-0.25-0.22-0.44-0.5-0.57-0.8c-0.439-1.09,0.08-2.33,1.17-2.77c0.49-0.2,1.021-0.3,1.551-0.28     c0.8-0.06,1.59,0.18,2.22,0.67c0.51,0.46,0.79,1.11,0.79,1.8l-1.58,0.05c-0.03-0.34-0.19-0.65-0.44-0.88     c-0.29-0.19-0.64-0.29-1-0.26c-0.38-0.02-0.76,0.08-1.08,0.28c-0.159,0.11-0.25,0.3-0.25,0.49c0,0.19,0.091,0.37,0.24,0.48     c0.45,0.27,0.94,0.45,1.46,0.53c0.59,0.12,1.16,0.31,1.71,0.57C30.04,39.29,30.34,39.57,30.55,39.91z" fill="#010202"/></g><g><path d="M23.31,39.23v3.15c-0.42,0.38-0.909,0.68-1.449,0.87c-0.61,0.24-1.261,0.37-1.92,0.37     c-0.75,0.02-1.49-0.16-2.15-0.52c-0.6-0.35-1.09-0.87-1.38-1.5c-0.311-0.67-0.47-1.39-0.46-2.13c-0.01-0.77,0.16-1.53,0.52-2.21     c0.34-0.64,0.87-1.16,1.521-1.49c0.59-0.28,1.24-0.42,1.899-0.39c0.811-0.05,1.62,0.16,2.301,0.61     c0.56,0.42,0.939,1.03,1.069,1.71l-1.63,0.29c-0.1-0.36-0.32-0.68-0.63-0.9c-0.33-0.23-0.74-0.35-1.15-0.33     c-0.619-0.03-1.22,0.21-1.649,0.67c-0.45,0.56-0.67,1.26-0.62,1.98c-0.061,0.76,0.16,1.51,0.62,2.12c0.41,0.47,1,0.73,1.63,0.71     c0.34,0,0.67-0.07,0.99-0.2c0.31-0.11,0.6-0.27,0.859-0.47v-1.01h-1.83v-1.33H23.31z" fill="#010202"/></g><g><rect fill="#010202" height="7.96" width="1.63" x="13.14" y="35.52"/></g></g></g></svg>