<?xml version="1.0" ?><svg fill="#d1d5db" data-name="Layer 1" id="Layer_1" viewBox="0 0 64 64" xmlns="http://www.w3.org/2000/svg"><title/><path d="M31,28.019v7.2l8.234,4.755,8.235-4.755V25.709l-8.235-4.754L33,24.554v-7.2L24.766,12.6l-8.235,4.754v9.509l8.235,4.755Zm2,0,5.232,3.02v6.048L33,34.063Zm7.232,9.071v-6.04l5.237-3.029v6.045Zm4.237-10.8-5.227,3.023L34,26.285l5.232-3.021ZM31,25.709h0l-5.237,3.023V22.692L31,19.664v6.045Zm-1-7.777-5.227,3.022-5.24-3.024,5.233-3.02ZM18.531,19.661l5.232,3.02v6.048l-5.232-3.02Z"/><path d="M27.223,50.416a1.871,1.871,0,0,0-1.121-.259H24.884v2.16H26.1a3.426,3.426,0,0,0,.548-.041,1.358,1.358,0,0,0,.458-.152.854.854,0,0,0,.32-.317,1.052,1.052,0,0,0,.12-.535,1.413,1.413,0,0,0-.084-.534A.758.758,0,0,0,27.223,50.416Z"/><path d="M54,43.67V17.376l-.293-.293L39.417,2.793,39.124,2.5H14a4,4,0,0,0-4,4V40.242a1.991,1.991,0,0,0-1,1.722V56.5a5.006,5.006,0,0,0,5,5H50a5.006,5.006,0,0,0,5-5V45.393A1.991,1.991,0,0,0,54,43.67ZM28.606,53.265a3.6,3.6,0,0,1-2.357.684H24.884v3.5H22.977V48.525h3.287a5.216,5.216,0,0,1,1.261.144,2.756,2.756,0,0,1,1.01.468,2.221,2.221,0,0,1,.676.846,2.97,2.97,0,0,1,.245,1.267A2.453,2.453,0,0,1,28.606,53.265Zm7.5,4.188H30.429V48.525h1.907v7.3H36.1Zm3.228-3.576v3.576H37.425v-3.54l-2.473-5.388h2.017l1.4,3.228,1.4-3.228h2.016ZM52,43.393H30.086l-2.4-2.746a2,2,0,0,0-1.505-.683H12V6.5a2,2,0,0,1,2-2H37.71V14.79a4,4,0,0,0,4,4H52Z"/></svg>