<?xml version="1.0" ?><svg fill="#d1d5db" data-name="Layer 1" id="Layer_1" viewBox="0 0 64 64" xmlns="http://www.w3.org/2000/svg"><title/><path d="M31,28.019v7.2l8.234,4.755,8.235-4.755V25.709l-8.235-4.754L33,24.554v-7.2L24.766,12.6l-8.235,4.754v9.509l8.235,4.755Zm2,0,5.232,3.02v6.048L33,34.063Zm7.232,9.071v-6.04l5.237-3.029v6.045Zm4.237-10.8-5.227,3.023L34,26.285l5.232-3.021ZM31,25.709h0l-5.237,3.023V22.692L31,19.664v6.045Zm-1-7.777-5.227,3.022-5.24-3.024,5.233-3.02ZM18.531,19.661l5.232,3.02v6.048l-5.232-3.02Z"/><path d="M54,43.67V17.376l-.293-.293L39.417,2.793,39.124,2.5H14a4,4,0,0,0-4,4V40.242a1.991,1.991,0,0,0-1,1.722V56.5a5.006,5.006,0,0,0,5,5H50a5.006,5.006,0,0,0,5-5V45.393A1.991,1.991,0,0,0,54,43.67Zm-26.689,9.6a3.606,3.606,0,0,1-2.358.683H23.588v3.5H21.68V48.525h3.288a5.171,5.171,0,0,1,1.261.145,2.756,2.756,0,0,1,1.01.468,2.227,2.227,0,0,1,.676.845,2.973,2.973,0,0,1,.245,1.267A2.457,2.457,0,0,1,27.311,53.266Zm6.57,4.187-1.623-3.527H31.04v3.527H29.132V48.525h3.575a3.78,3.78,0,0,1,1.2.18,2.5,2.5,0,0,1,.915.528,2.378,2.378,0,0,1,.586.871,3.231,3.231,0,0,1,.209,1.206,2.363,2.363,0,0,1-.4,1.374,2.253,2.253,0,0,1-1.14.845l1.936,3.924Zm9-7.3H40.616v7.3H38.708v-7.3H36.452V48.525h6.432ZM52,43.393H30.086l-2.4-2.746a2,2,0,0,0-1.505-.683H12V6.5a2,2,0,0,1,2-2H37.71V14.79a4,4,0,0,0,4,4H52Z"/><path d="M33.38,50.428a1.521,1.521,0,0,0-1.008-.271H31.04v2.137h1.14a5.371,5.371,0,0,0,.552-.029,1.461,1.461,0,0,0,.492-.136.863.863,0,0,0,.348-.3.967.967,0,0,0,.132-.54,1.4,1.4,0,0,0-.084-.516A.826.826,0,0,0,33.38,50.428Z"/><path d="M25.927,50.416a1.871,1.871,0,0,0-1.121-.259H23.588v2.16h1.218a3.435,3.435,0,0,0,.548-.041,1.358,1.358,0,0,0,.458-.152.844.844,0,0,0,.319-.317,1.041,1.041,0,0,0,.121-.535,1.415,1.415,0,0,0-.085-.534A.748.748,0,0,0,25.927,50.416Z"/></svg>