<?xml version="1.0" ?><!DOCTYPE svg  PUBLIC '-//W3C//DTD SVG 1.1//EN'  'http://www.w3.org/Graphics/SVG/1.1/DTD/svg11.dtd'><svg height="8.33333in" style="shape-rendering:geometricPrecision; text-rendering:geometricPrecision; image-rendering:optimizeQuality; fill-rule:evenodd; clip-rule:evenodd" viewBox="0 0 8.33333 8.33333" width="8.33333in" xml:space="preserve" xmlns="http://www.w3.org/2000/svg" xmlns:xlink="http://www.w3.org/1999/xlink"><defs><style type="text/css">
   <![CDATA[
    .fil1 {fill:none}
    .fil0 {fill:#d1d5db}
   ]]>
  </style></defs><g id="Layer_x0020_1"><path class="fil0" d="M5.15481 1.68666l-2.71465 0 0 2.21042c0,0.066252 -0.0537402,0.119992 -0.119992,0.119992 -0.066252,0 -0.119992,-0.0537402 -0.119992,-0.119992l0 -2.33041c0,-0.066252 0.0537402,-0.119992 0.119992,-0.119992l2.91464 0c0.0320866,0 0.0625157,0.0128268 0.0851772,0.0354921l0.77802 0.77802c0.0225512,0.0225472 0.0351496,0.0529488 0.0351496,0.0848386l3.93701e-006 1.55205c0,0.066252 -0.0537402,0.119992 -0.119992,0.119992 -0.066252,0 -0.119992,-0.0537402 -0.119992,-0.119992l0 -1.47206 -0.269189 0c-0.129106,0 -0.246421,-0.0527638 -0.331417,-0.137756 -0.0849921,-0.0849961 -0.137756,-0.202311 -0.137756,-0.331417l0 -0.269189zm-2.71465 4.96002l3.45301 0 0 -0.62522c0,-0.066252 0.0537402,-0.119992 0.119992,-0.119992 0.066252,0 0.119992,0.0537402 0.119992,0.119992l0 0.745213c0,0.066252 -0.0537402,0.119992 -0.119992,0.119992l-3.693 0c-0.066252,0 -0.119992,-0.0537402 -0.119992,-0.119992l0 -0.745213c0,-0.066252 0.0537402,-0.119992 0.119992,-0.119992 0.066252,0 0.119992,0.0537402 0.119992,0.119992l0 0.62522z"/><polygon class="fil0" points="3.0052,2.8249 5.32812,2.8249 5.32812,3.02489 3.0052,3.02489 "/><polygon class="fil0" points="3.0052,3.2995 5.32812,3.2995 5.32812,3.49949 3.0052,3.49949 "/><polygon class="fil0" points="3.0052,2.3503 4.64759,2.3503 4.64759,2.5503 3.0052,2.5503 "/><path class="fil0" d="M2.82754 5.4669l0 -1.01528 0.431638 0c0.1085,0 0.187217,0.00922047 0.236386,0.0274213 0.0491693,0.0182008 0.0886457,0.0505866 0.118193,0.0971535 0.0295512,0.0468071 0.0442047,0.0999921 0.0442047,0.160035 0,0.0761181 -0.0224567,0.139232 -0.0671339,0.188874 -0.0446772,0.0494055 -0.111811,0.0808425 -0.200929,0.0936102 0.0444409,0.026 0.0810827,0.0543661 0.109921,0.0853346 0.0288386,0.0309685 0.0676063,0.0858071 0.116539,0.164764l0.124102 0.198091 -0.245134 0 -0.148213 -0.221024c-0.0527165,-0.0789528 -0.0886457,-0.128594 -0.108031,-0.149157 -0.0193819,-0.0205669 -0.0399488,-0.0345118 -0.0616969,-0.042315 -0.021748,-0.00756299 -0.0560236,-0.0113465 -0.103299,-0.0113465l-0.0413661 0 0 0.423843 -0.205181 0zm0.894244 -1.01528l0.222441 0 0.256717 0.751476 0.248677 -0.751476 0.217476 0 -0.363563 1.01528 -0.218894 0 -0.362854 -1.01528zm1.27838 1.01528l0 -0.843429 -0.301157 0 0 -0.171854 0.806787 0 0 0.171854 -0.300445 0 0 0.843429 -0.205185 0zm-2.56 0.634551l3.45301 0 0.239984 0 0.401661 0c0.0441811,0 0.08,-0.0358189 0.08,-0.08l0 -2.12438c0,-0.0441811 -0.0358189,-0.08 -0.08,-0.08l-0.401661 0 -0.239984 0 -3.45301 0 -0.239984 0 -0.401661 0c-0.0441811,0 -0.08,0.0358189 -0.08,0.08l0 2.12438c0,0.0441811 0.0358189,0.08 0.08,0.08l0.401661 0 0.239984 0z"/><path class="fil0" d="M3.03272 4.8809l0.15152 0c0.0983386,0 0.159799,-0.00401969 0.184382,-0.0122913 0.0243504,-0.00827559 0.0434961,-0.0226929 0.0574449,-0.0430236 0.0137087,-0.0203268 0.0207992,-0.045622 0.0207992,-0.0761142 0,-0.0342795 -0.00921654,-0.0617008 -0.0274173,-0.0827362 -0.0182047,-0.0210394 -0.0439685,-0.0342756 -0.0772992,-0.0399488 -0.0165472,-0.00212992 -0.0664252,-0.00331102 -0.149634,-0.00331102l-0.159795 0 0 0.257425z"/></g><rect class="fil1" height="8.33333" width="8.33333"/></svg>