<?xml version="1.0" ?><svg data-name="Layer 1" id="Layer_1" viewBox="0 0 64 64" xmlns="http://www.w3.org/2000/svg"><title/><path d="M31,28.019v7.2l8.234,4.755,8.235-4.755V25.709l-8.235-4.754L33,24.554v-7.2L24.766,12.6l-8.235,4.754v9.509l8.235,4.755Zm2,0,5.232,3.02v6.048L33,34.063Zm7.232,9.071v-6.04l5.237-3.029v6.045Zm4.237-10.8-5.227,3.023L34,26.285l5.232-3.021ZM31,25.709h0l-5.237,3.023V22.692L31,19.664v6.045Zm-1-7.777-5.227,3.022-5.24-3.024,5.233-3.02ZM18.531,19.661l5.232,3.02v6.048l-5.232-3.02Z"/><polygon points="33.139 53.793 34.398 53.793 33.786 51.417 33.139 53.793"/><path d="M29.024,51.475a1.439,1.439,0,0,0-1.228-.527h-.759V55.2h.74a1.745,1.745,0,0,0,.818-.168,1.272,1.272,0,0,0,.506-.463,1.891,1.891,0,0,0,.257-.68,4.473,4.473,0,0,0,.073-.822,3.692,3.692,0,0,0-.1-.93A1.872,1.872,0,0,0,29.024,51.475Z"/><path d="M54,43.67V17.376l-.293-.293L39.417,2.793,39.124,2.5H14a4,4,0,0,0-4,4V40.242a1.991,1.991,0,0,0-1,1.722V56.5a5.006,5.006,0,0,0,5,5H50a5.006,5.006,0,0,0,5-5V45.393A1.991,1.991,0,0,0,54,43.67ZM19,55.988a2.685,2.685,0,0,1-1.765.523,2.876,2.876,0,0,1-1.422-.388,2.227,2.227,0,0,1-.638-.508,2.982,2.982,0,0,1-.477-.8l1.2-.521a3.435,3.435,0,0,0,.234.427,1.443,1.443,0,0,0,.288.329,1.217,1.217,0,0,0,.373.211,1.415,1.415,0,0,0,.481.077,1.967,1.967,0,0,0,.37-.036.99.99,0,0,0,.319-.122.614.614,0,0,0,.221-.234.784.784,0,0,0,.081-.374.658.658,0,0,0-.342-.557,4.451,4.451,0,0,0-.909-.451,5.605,5.605,0,0,1-1.557-.819,1.575,1.575,0,0,1-.54-1.269,1.646,1.646,0,0,1,.63-1.323,2.389,2.389,0,0,1,1.575-.521,2.672,2.672,0,0,1,1.422.386,2.147,2.147,0,0,1,.558.487,3.193,3.193,0,0,1,.441.756l-1.323.4a1.849,1.849,0,0,0-.409-.626.966.966,0,0,0-.7-.238,1.408,1.408,0,0,0-.292.031.964.964,0,0,0-.27.1.534.534,0,0,0-.275.482.459.459,0,0,0,.086.261.862.862,0,0,0,.292.243,6.085,6.085,0,0,0,.973.432,4.67,4.67,0,0,1,1.368.728,1.624,1.624,0,0,1,.639,1.387A1.893,1.893,0,0,1,19,55.988Zm5.858.433H20.6v-6.7h1.431V55.2h2.825ZM30.673,54.5a2.624,2.624,0,0,1-.592,1.049,2.882,2.882,0,0,1-2.268.873H25.605v-6.7h2.189a3.606,3.606,0,0,1,1.377.238,2.468,2.468,0,0,1,.955.68,2.822,2.822,0,0,1,.557,1.057,4.96,4.96,0,0,1,.178,1.381A4.846,4.846,0,0,1,30.673,54.5Zm4.4,1.922-.359-1.4h-1.9l-.386,1.4H30.987l1.936-6.7h1.691l1.908,6.7Zm5.932-.433a2.685,2.685,0,0,1-1.765.523,2.876,2.876,0,0,1-1.422-.388,2.227,2.227,0,0,1-.638-.508,2.982,2.982,0,0,1-.477-.8l1.2-.521a3.573,3.573,0,0,0,.235.427,1.419,1.419,0,0,0,.288.329,1.217,1.217,0,0,0,.373.211,1.415,1.415,0,0,0,.481.077,1.975,1.975,0,0,0,.37-.036.99.99,0,0,0,.319-.122.614.614,0,0,0,.221-.234.784.784,0,0,0,.081-.374.658.658,0,0,0-.342-.557,4.451,4.451,0,0,0-.909-.451,5.605,5.605,0,0,1-1.557-.819,1.575,1.575,0,0,1-.54-1.269,1.646,1.646,0,0,1,.63-1.323,2.389,2.389,0,0,1,1.575-.521,2.672,2.672,0,0,1,1.422.386,2.163,2.163,0,0,1,.558.487,3.193,3.193,0,0,1,.441.756l-1.323.4a1.849,1.849,0,0,0-.409-.626.968.968,0,0,0-.7-.238,1.408,1.408,0,0,0-.292.031.964.964,0,0,0-.27.1.529.529,0,0,0-.275.482.459.459,0,0,0,.086.261.862.862,0,0,0,.292.243,6.085,6.085,0,0,0,.973.432A4.67,4.67,0,0,1,41,53.081a1.624,1.624,0,0,1,.639,1.387A1.893,1.893,0,0,1,41.005,55.988Zm7.866.433H47.593V51.857l-1.305,4.564H45.2l-1.286-4.555v4.555H42.634v-6.7h1.917l1.187,4.3,1.2-4.3h1.935ZM52,43.393H30.086l-2.4-2.746a2,2,0,0,0-1.505-.683H12V6.5a2,2,0,0,1,2-2H37.71V14.79a4,4,0,0,0,4,4H52Z"/></svg>