<?xml version="1.0" ?><svg data-name="Layer 1" id="Layer_1" viewBox="0 0 64 64" xmlns="http://www.w3.org/2000/svg"><title/><path d="M31,28.019v7.2l8.234,4.755,8.235-4.755V25.709l-8.235-4.754L33,24.554v-7.2L24.766,12.6l-8.235,4.754v9.509l8.235,4.755Zm2,0,5.232,3.02v6.048L33,34.063Zm7.232,9.071v-6.04l5.237-3.029v6.045Zm4.237-10.8-5.227,3.023L34,26.285l5.232-3.021ZM31,25.709h0l-5.237,3.023V22.692L31,19.664v6.045Zm-1-7.777-5.227,3.022-5.24-3.024,5.233-3.02ZM18.531,19.661l5.232,3.02v6.048l-5.232-3.02Z"/><path d="M35.7,51.143a1.4,1.4,0,0,0-.841-.2h-.913v1.62h.913a2.584,2.584,0,0,0,.412-.03,1.006,1.006,0,0,0,.343-.115.642.642,0,0,0,.24-.237.791.791,0,0,0,.09-.4,1.068,1.068,0,0,0-.063-.4A.55.55,0,0,0,35.7,51.143Z"/><path d="M30.019,51.475a1.441,1.441,0,0,0-1.229-.527h-.759V55.2h.741a1.743,1.743,0,0,0,.818-.168,1.278,1.278,0,0,0,.506-.463,1.949,1.949,0,0,0,.258-.68,4.565,4.565,0,0,0,.072-.822,3.643,3.643,0,0,0-.1-.93A1.871,1.871,0,0,0,30.019,51.475Z"/><path d="M41.288,51.151a1.145,1.145,0,0,0-.756-.2h-1v1.6h.856a3.858,3.858,0,0,0,.414-.023,1.1,1.1,0,0,0,.368-.1.669.669,0,0,0,.262-.23.729.729,0,0,0,.1-.4,1.077,1.077,0,0,0-.062-.388A.64.64,0,0,0,41.288,51.151Z"/><path d="M54,43.67V17.376l-.293-.293L39.417,2.793,39.124,2.5H14a4,4,0,0,0-4,4V40.242a1.991,1.991,0,0,0-1,1.722V56.5a5.006,5.006,0,0,0,5,5H50a5.006,5.006,0,0,0,5-5V45.393A1.991,1.991,0,0,0,54,43.67ZM19.994,55.988a2.684,2.684,0,0,1-1.764.523,2.87,2.87,0,0,1-1.421-.388,2.263,2.263,0,0,1-.64-.508,2.982,2.982,0,0,1-.477-.8l1.2-.521a3.307,3.307,0,0,0,.233.427,1.467,1.467,0,0,0,.288.329,1.246,1.246,0,0,0,.374.211,1.409,1.409,0,0,0,.482.077,1.956,1.956,0,0,0,.369-.036,1.008,1.008,0,0,0,.319-.122.622.622,0,0,0,.221-.234.784.784,0,0,0,.081-.374.655.655,0,0,0-.343-.557,4.441,4.441,0,0,0-.908-.451,5.628,5.628,0,0,1-1.558-.819,1.578,1.578,0,0,1-.54-1.269,1.646,1.646,0,0,1,.63-1.323,2.391,2.391,0,0,1,1.575-.521,2.668,2.668,0,0,1,1.422.386,2.151,2.151,0,0,1,.559.487,3.159,3.159,0,0,1,.44.756l-1.323.4a1.82,1.82,0,0,0-.409-.626.965.965,0,0,0-.7-.238,1.408,1.408,0,0,0-.292.031.964.964,0,0,0-.27.1.526.526,0,0,0-.274.482.458.458,0,0,0,.085.261.847.847,0,0,0,.293.243,6.1,6.1,0,0,0,.971.432,4.67,4.67,0,0,1,1.368.728,1.624,1.624,0,0,1,.639,1.387A1.893,1.893,0,0,1,19.994,55.988Zm5.86.433H21.6v-6.7h1.43V55.2h2.827ZM31.668,54.5a2.648,2.648,0,0,1-.592,1.049,2.885,2.885,0,0,1-2.269.873H26.6v-6.7h2.188a3.606,3.606,0,0,1,1.377.238,2.475,2.475,0,0,1,.955.68,2.806,2.806,0,0,1,.556,1.057,5.429,5.429,0,0,1-.009,2.8Zm5.068-1.22a2.7,2.7,0,0,1-1.768.514H33.944v2.628h-1.43v-6.7h2.465a3.918,3.918,0,0,1,.946.108,2.043,2.043,0,0,1,.758.351,1.675,1.675,0,0,1,.506.634,2.217,2.217,0,0,1,.184.95A1.838,1.838,0,0,1,36.736,53.279Zm4.928,3.142-1.218-2.647h-.913v2.647H38.1v-6.7h2.68a2.844,2.844,0,0,1,.9.134,1.869,1.869,0,0,1,.686.4,1.777,1.777,0,0,1,.44.652,2.434,2.434,0,0,1,.156.905,1.773,1.773,0,0,1-.3,1.03,1.69,1.69,0,0,1-.854.635l1.451,2.943Zm6.752-5.473h-1.7v5.473H45.284V50.948H43.592V49.725h4.824ZM52,43.393H30.086l-2.4-2.746a2,2,0,0,0-1.505-.683H12V6.5a2,2,0,0,1,2-2H37.71V14.79a4,4,0,0,0,4,4H52Z"/></svg>