<?xml version="1.0" ?><svg fill="#d1d5db" data-name="Layer 1" id="Layer_1" viewBox="0 0 64 64" xmlns="http://www.w3.org/2000/svg"><defs><style>.cls-1{fill:#1d1d1b;}</style></defs><title/><path class="cls-1" d="M18.1,25.059a.984.984,0,0,0,.911-.611h9.1a10.332,10.332,0,0,0,1.5.4V26.46h4.773V25.367c6.377,1.552,6.507,9.2,6.508,9.572H39.509v4.773h4.773V34.939H42.9a15.594,15.594,0,0,0-1.327-5.847,10.136,10.136,0,0,0-4.056-4.644h7.476a.986.986,0,1,0,0-.75h-9.1a10.482,10.482,0,0,0-1.5-.4V21.687H29.614V22.78c-6.378-1.553-6.508-9.2-6.509-9.572h1.386V8.435H19.718v4.773H21.1a15.6,15.6,0,0,0,1.327,5.847A10.129,10.129,0,0,0,26.487,23.7H19.011a.986.986,0,1,0-.911,1.361Z"/><path class="cls-1" d="M54,43.67V17.376l-.293-.293L39.417,2.793,39.124,2.5H14a4,4,0,0,0-4,4V40.242a1.991,1.991,0,0,0-1,1.722V56.5a5.006,5.006,0,0,0,5,5H50a5.006,5.006,0,0,0,5-5V45.393A1.991,1.991,0,0,0,54,43.67ZM27.662,56.824a3.583,3.583,0,0,1-2.351.7,3.844,3.844,0,0,1-1.9-.516,2.991,2.991,0,0,1-.851-.678,3.941,3.941,0,0,1-.636-1.062l1.595-.7a4.625,4.625,0,0,0,.312.57,1.928,1.928,0,0,0,.385.438,1.62,1.62,0,0,0,.5.282,1.87,1.87,0,0,0,.641.1,2.52,2.52,0,0,0,.493-.048,1.287,1.287,0,0,0,.425-.162.818.818,0,0,0,.294-.312,1.02,1.02,0,0,0,.109-.5.878.878,0,0,0-.456-.744,5.925,5.925,0,0,0-1.212-.6A7.514,7.514,0,0,1,22.935,52.5a2.1,2.1,0,0,1-.721-1.692,2.191,2.191,0,0,1,.841-1.764,3.177,3.177,0,0,1,2.1-.7,3.555,3.555,0,0,1,1.9.516,2.869,2.869,0,0,1,.743.648,4.24,4.24,0,0,1,.589,1.008l-1.765.54a2.442,2.442,0,0,0-.546-.834,1.283,1.283,0,0,0-.929-.318,1.893,1.893,0,0,0-.391.042,1.268,1.268,0,0,0-.359.132.7.7,0,0,0-.367.642.606.606,0,0,0,.115.348,1.134,1.134,0,0,0,.389.324,8.137,8.137,0,0,0,1.3.576,6.23,6.23,0,0,1,1.824.972A2.161,2.161,0,0,1,28.5,54.8,2.523,2.523,0,0,1,27.662,56.824Zm7.884-6.72H33.278v7.3H31.37V50.1H29.114V48.472h6.432Zm6.6,7.3H36.471V48.472h1.907v7.3h3.768ZM52,43.393H30.086l-2.4-2.746a2,2,0,0,0-1.505-.683H12V6.5a2,2,0,0,1,2-2H37.71V14.79a4,4,0,0,0,4,4H52Z"/></svg>