<?xml version="1.0" ?><!DOCTYPE svg PUBLIC '-//W3C//DTD SVG 1.1//EN'  'http://www.w3.org/Graphics/SVG/1.1/DTD/svg11.dtd'><svg enable-background="new 0 0 64 64" height="64px" version="1.1" viewBox="0 0 64 64" width="64px" xml:space="preserve" xmlns="http://www.w3.org/2000/svg" xmlns:xlink="http://www.w3.org/1999/xlink"><g id="Layer_2"><g><g><path d="M54,59H22c-2.757,0-5-2.243-5-5v-6h2v6c0,1.654,1.346,3,3,3h32c1.654,0,3-1.346,3-3V15.173L48.827,7H22V5     h27.655L59,14.345V54C59,56.757,56.757,59,54,59z" fill="#010202"/></g><g><path d="M19,31h-2V10c0-2.757,2.243-5,5-5v2c-1.654,0-3,1.346-3,3V31z" fill="#010202"/></g><g id="LWPOLYLINE_210_"><g><rect fill="#010202" height="2" width="28" x="24" y="51"/></g></g><g id="LWPOLYLINE_209_"><g><rect fill="#010202" height="2" width="28" x="24" y="16"/></g></g><g id="LWPOLYLINE_208_"><g><rect fill="#010202" height="2" width="28" x="24" y="26"/></g></g><g id="LWPOLYLINE_207_"><g><rect fill="#010202" height="2" width="28" x="24" y="21"/></g></g><g id="LWPOLYLINE_206_"><g><rect fill="#010202" height="2" width="11" x="41" y="31"/></g></g><g id="LWPOLYLINE_205_"><g><rect fill="#010202" height="2" width="11" x="41" y="36"/></g></g><g id="LWPOLYLINE_204_"><g><rect fill="#010202" height="2" width="11" x="41" y="41"/></g></g><g id="LWPOLYLINE_203_"><g><rect fill="#010202" height="2" width="11" x="41" y="46"/></g></g><g id="LWPOLYLINE_202_"><g><path d="M34,49H10c-2.757,0-5-2.243-5-5v-9c0-2.757,2.243-5,5-5h24c2.757,0,5,2.243,5,5v9      C39,46.757,36.757,49,34,49z M10,32c-1.654,0-3,1.346-3,3v9c0,1.654,1.346,3,3,3h24c1.654,0,3-1.346,3-3v-9c0-1.654-1.346-3-3-3      H10z" fill="#010202"/></g></g><g id="LINE_21_"><g><rect fill="#010202" height="2" transform="matrix(0.7071 0.7071 -0.7071 0.7071 23.0459 -34.8762)" width="12.387" x="47.427" y="9.38"/></g></g><g id="LWPOLYLINE_201_"><g><path d="M58,15.759h-4.759c-2.757,0-5-2.243-5-5V6h2v4.759c0,1.654,1.346,3,3,3H58V15.759z" fill="#010202"/></g></g></g></g><g id="Layer_1"><g><g><path d="M32.3,37.96c0.01,0.43-0.08,0.85-0.27,1.23c-0.15,0.31-0.38,0.58-0.67,0.78     c-0.24,0.18-0.52,0.31-0.82,0.38c-0.55,0.09-1.1,0.13-1.65,0.11h-1.04v3.02h-1.63v-7.96h2.57c0.64-0.02,1.28,0.02,1.91,0.12     c0.45,0.13,0.86,0.4,1.14,0.78C32.16,36.87,32.32,37.41,32.3,37.96z M30.67,37.99c0.01-0.27-0.08-0.52-0.26-0.72     c-0.16-0.19-0.39-0.32-0.64-0.36l-1.15-0.05h-0.77v2.27h0.88c0.42,0.02,0.85-0.02,1.26-0.13c0.2-0.07,0.37-0.21,0.5-0.39     C30.61,38.43,30.67,38.21,30.67,37.99z" fill="#010202"/></g><g><polygon fill="#010202" points="25.19,35.52 25.19,36.86 22.86,36.86 22.86,43.48 21.23,43.48 21.23,36.86 18.91,36.86      18.91,35.52    "/></g><g><path d="M17.81,39.91c0.22,0.39,0.33,0.82,0.31,1.27c0,0.45-0.13,0.89-0.37,1.27c-0.26,0.4-0.63,0.71-1.07,0.88     c-0.55,0.21-1.13,0.31-1.72,0.29c-0.82,0.06-1.64-0.19-2.3-0.69c-0.56-0.53-0.91-1.25-0.96-2.02l1.53-0.15     c0.06,0.43,0.26,0.83,0.57,1.12c0.33,0.26,0.74,0.38,1.15,0.36c0.41,0.03,0.82-0.08,1.16-0.32c0.23-0.18,0.38-0.45,0.38-0.75     c0.01-0.17-0.05-0.34-0.16-0.47c-0.16-0.16-0.35-0.27-0.57-0.34l-1.26-0.34c-0.65-0.12-1.26-0.39-1.78-0.79     c-0.25-0.22-0.45-0.5-0.57-0.8c-0.44-1.09,0.08-2.33,1.17-2.77c0.49-0.2,1.02-0.3,1.55-0.28c0.8-0.06,1.59,0.18,2.22,0.67     c0.51,0.46,0.79,1.11,0.79,1.8L16.3,37.9c-0.03-0.34-0.19-0.65-0.44-0.88c-0.29-0.19-0.65-0.29-1-0.26     c-0.38-0.02-0.76,0.08-1.08,0.28c-0.16,0.11-0.25,0.3-0.25,0.49c0,0.19,0.09,0.37,0.24,0.48c0.45,0.27,0.94,0.45,1.46,0.53     c0.59,0.12,1.16,0.31,1.71,0.57C17.3,39.29,17.6,39.57,17.81,39.91z" fill="#010202"/></g></g></g></svg>