<?xml version="1.0" ?><svg data-name="Layer 1" id="Layer_1" viewBox="0 0 64 64" xmlns="http://www.w3.org/2000/svg"><defs><style>.cls-1{fill:#1d1d1b;}</style></defs><title/><path class="cls-1" d="M18.1,25.059a.984.984,0,0,0,.911-.611h9.1a10.332,10.332,0,0,0,1.5.4V26.46h4.773V25.367c6.377,1.552,6.507,9.2,6.508,9.572H39.509v4.773h4.773V34.939H42.9a15.594,15.594,0,0,0-1.327-5.847,10.136,10.136,0,0,0-4.056-4.644h7.476a.986.986,0,1,0,0-.75h-9.1a10.482,10.482,0,0,0-1.5-.4V21.687H29.614V22.78c-6.378-1.553-6.508-9.2-6.509-9.572h1.386V8.435H19.718v4.773H21.1a15.6,15.6,0,0,0,1.327,5.847A10.129,10.129,0,0,0,26.487,23.7H19.011a.986.986,0,1,0-.911,1.361Z"/><path class="cls-1" d="M40.362,50.806a1.919,1.919,0,0,0-1.638-.7H37.712v5.664H38.7a2.342,2.342,0,0,0,1.09-.224,1.727,1.727,0,0,0,.675-.617,2.61,2.61,0,0,0,.343-.908,5.967,5.967,0,0,0,.1-1.095,4.926,4.926,0,0,0-.138-1.24A2.5,2.5,0,0,0,40.362,50.806Z"/><path class="cls-1" d="M54,43.67V17.376l-.293-.293L39.417,2.793,39.124,2.5H14a4,4,0,0,0-4,4V40.242a1.991,1.991,0,0,0-1,1.722V56.5a5.006,5.006,0,0,0,5,5H50a5.006,5.006,0,0,0,5-5V45.393A1.991,1.991,0,0,0,54,43.67ZM25.688,57.4l-1.356-2.772L22.977,57.4h-2.1l2.412-4.572-2.267-4.356h2.1l1.212,2.508,1.212-2.508h2.1l-2.269,4.356L27.788,57.4Zm7.716-.624a3.464,3.464,0,0,1-2.3.744,3.683,3.683,0,0,1-2.017-.564,3.807,3.807,0,0,1-.726-.588,2.746,2.746,0,0,1-.486-.72l1.477-.828a2.356,2.356,0,0,0,.263.42,2.451,2.451,0,0,0,.384.372,1.733,1.733,0,0,0,1.14.348,1.467,1.467,0,0,0,.948-.318,1.079,1.079,0,0,0,.4-.894,1.008,1.008,0,0,0-.24-.714,1.524,1.524,0,0,0-.594-.39,2.747,2.747,0,0,0-.762-.162q-.408-.03-.732-.03h-.288v-1.56h.228a3.543,3.543,0,0,0,1.633-.276.889.889,0,0,0,.372-1.182.932.932,0,0,0-.246-.288,1.109,1.109,0,0,0-.349-.174,1.377,1.377,0,0,0-.4-.06,1.613,1.613,0,0,0-.937.264,3.951,3.951,0,0,0-.731.66L28.208,49.72a4.448,4.448,0,0,1,1.254-1,3.271,3.271,0,0,1,1.555-.372,3.416,3.416,0,0,1,2.159.636,2.073,2.073,0,0,1,.841,1.728,2.059,2.059,0,0,1-1.105,1.86,2.127,2.127,0,0,1,1.05.888,2.624,2.624,0,0,1,.343,1.344A2.406,2.406,0,0,1,33.4,56.776Zm9.157-1.938a3.5,3.5,0,0,1-.79,1.4A3.845,3.845,0,0,1,38.746,57.4H35.805V48.472h2.918a4.8,4.8,0,0,1,1.835.318,3.3,3.3,0,0,1,1.274.906,3.758,3.758,0,0,1,.741,1.41,6.6,6.6,0,0,1,.24,1.842A6.455,6.455,0,0,1,42.561,54.838ZM52,43.393H30.086l-2.4-2.746a2,2,0,0,0-1.505-.683H12V6.5a2,2,0,0,1,2-2H37.71V14.79a4,4,0,0,0,4,4H52Z"/></svg>